<svg version="1.1" id="Layer_1" xmlns="http://www.w3.org/2000/svg" x="0" y="0" viewBox="0 0 600 600" xml:space="preserve"><style>.st0{fill:#6e8293}</style><path class="st0" d="M468.8 586.1H131.6c-29.4 0-53.2-23.9-53.2-53.2V67.2c0-29.4 23.9-53.2 53.2-53.2h337.1c29.4 0 53.2 23.9 53.2 53.2v465.7c.1 29.3-23.8 53.2-53.1 53.2zM131.6 63.7c-1.9 0-3.6 1.7-3.6 3.5v465.7c0 1.9 1.7 3.6 3.6 3.6h337.1c1.9 0 3.5-1.7 3.5-3.6V67.2c0-1.9-1.7-3.5-3.5-3.5H131.6z"/><path class="st0" d="M184.1 127h235.5v49.7H184.1zm0 98.9h235.5v49.7H184.1z"/><path transform="matrix(.9999 -.01228 .01228 .9999 -4.273 3.275)" class="st0" d="M184.1 324.8h161v49.7h-161z"/></svg>