<svg xmlns="http://www.w3.org/2000/svg" xmlns:xlink="http://www.w3.org/1999/xlink" viewBox="0 0 449 602" width="449" height="602"><defs><path d="M208.43 64.67L13.97 346.06c-4.8 7.04-3.09 16.64 3.95 21.44 7.04 4.8 16.64 3.09 21.44-3.95C58.79 335.41 214.27 110.3 233.71 82.17c18.02-26.24 43.52-43.52 71.78-48.86 25.92-4.8 51.63.86 74.24 16.43 50.24 34.45 45.02 106.45 10.88 156.16-21.07 30.47-189.69 274.27-210.77 304.75-40.21 58.66-77.01 72.85-122.88 47.46-.64-.42-.85-.64-1.39-1.06-15.04-14.19-22.72-30.08-22.72-49.07 0-25.39 13.55-56.32 41.18-96.43l191.68-279.68c14.5-21.12 28.9-33.28 42.88-35.84 10.24-1.92 21.01 1.18 33.06 9.39 31.79 21.76 7.68 67.09-9.49 92.16-16.86 24.59-151.78 221.28-168.64 245.87-4.8 7.04-2.99 16.64 4.05 21.44 7.04 4.8 16.64 2.98 21.44-4.06 16.87-24.6 151.78-221.37 168.64-245.97 39.68-57.92 40.32-108.37 1.5-134.93-18.88-12.91-37.76-17.71-56.22-14.19-22.5 4.16-42.98 20.16-62.61 48.64L48.64 394.06C9.92 450.27-26.77 522.27 34.77 579.87c.32.32.75.64 1.18.96.33.26 2.97 2.31 3.3 2.56.54.43 1.18.86 1.82 1.18 60.9 34.13 114.66 15.68 164.05-56.54C226.21 497.56 394.91 253.76 416 223.29c42.67-62.3 47.36-153.71-18.77-199.15C368.11 4.3 333.55-3.27 299.95 3.02c-36.38 6.83-68.91 28.69-91.52 61.65z" id="a"/></defs><use xlink:href="#a" fill="#b2c0cc"/><use xlink:href="#a" fill-opacity="0" stroke="#000" stroke-width="0" stroke-opacity="0"/></svg>