<svg xmlns="http://www.w3.org/2000/svg" viewBox="0 0 600 600"><path d="M533.3 231v-93.2h-70V161c0 12.9-10.4 23.4-23.3 23.4s-23.3-10.5-23.3-23.4v-23.2H183.4v23.3c0 12.9-10.4 23.4-23.3 23.4s-23.3-10.5-23.3-23.4v-23.3H66.9s0 39.4-.1 93.3h466.5zm0 46.7H66.7v256.6c0 .1 466.6.1 466.6.1V277.7zM463.3 91h69.9c25.8 0 46.8 20.9 46.8 46.8v396.5c0 25.8-20.9 46.8-46.8 46.8H66.8c-25.9-.1-46.8-21-46.8-46.9V137.8C20 111.9 40.9 91 66.8 91h69.9V44.4C136.7 31.5 147 21 160 21c12.9 0 23.3 10.5 23.3 23.4V91h233.3V44.4C416.7 31.5 427 21 440 21c12.9 0 23.3 10.5 23.3 23.4V91z" fill="#5f768a"/></svg>