<svg version="1.1" id="Layer_1" xmlns="http://www.w3.org/2000/svg" x="0" y="0" viewBox="0 0 600 600" xml:space="preserve"><style>.st0{fill:#b2c0cc}</style><path class="st0" d="M368.1 361.2c-38.4 38.4-98.3 38.4-136.7 0-9.6-9.6-24-9.6-33.6 0-9.6 9.6-9.6 24 0 33.6C226.6 423.6 265 438 301 438s74.4-14.4 100.7-43.2c9.6-9.6 9.6-24 0-33.6-7.2-9.6-24-9.6-33.6 0zM217 270c19.9 0 36-16.1 36-36s-16.1-36-36-36-36 16.1-36 36 16.1 36 36 36zm167.9-71.9c-19.9 0-36 16.1-36 36s16.1 36 36 36 36-16.1 36-36-16.1-36-36-36z"/><path class="st0" d="M301.8 27.7C153.9 27.7 33.6 148 33.6 295.9s120.3 268.2 268.2 268.2S570 443.8 570 295.9 449.7 27.7 301.8 27.7zm0 501.4c-128.6 0-233.2-104.6-233.2-233.2S173.2 62.7 301.8 62.7 535 167.3 535 295.9 430.4 529.1 301.8 529.1z"/></svg>