<svg version="1.1" id="Layer_1" xmlns="http://www.w3.org/2000/svg" x="0" y="0" viewBox="0 0 600 600" xml:space="preserve"><style>.st0{fill:%233D88F3;stroke:%233D88F3;stroke-width:8.8185;stroke-miterlimit:10}</style><path class="st0" d="M344.1 16.9c-133.4 0-241.9 108.5-241.9 241.9 0 62.1 23.7 118.6 62.3 161.5l-145.9 140c-5.4 5.2-5.6 13.8-.4 19.2 2.7 2.8 6.2 4.2 9.8 4.2 3.4 0 6.8-1.3 9.4-3.8l146.3-140.4c42.7 38 98.8 61.3 160.4 61.3 133.4 0 241.9-108.5 241.9-241.9 0-133.5-108.5-242-241.9-242zm0 456.8c-118.4 0-214.8-96.4-214.8-214.8C129.3 140.4 225.6 44 344.1 44c118.5 0 214.8 96.4 214.8 214.8 0 118.5-96.4 214.9-214.8 214.9z"/><path class="st0" d="M514 204.4c-.5-1.4-51.6-140-219.6-113.8-7.4 1.1-12.5 8.1-11.3 15.5 1.1 7.4 8.2 12.6 15.5 11.3 145.6-22.5 188.1 91.1 189.9 96 2 5.5 7.2 9 12.8 9 1.5 0 3-.2 4.5-.8 7-2.5 10.7-10.2 8.2-17.2z"/></svg>