<svg version="1.1" id="Layer_1" xmlns="http://www.w3.org/2000/svg" x="0" y="0" viewBox="0 0 600 600" style="enable-background:new 0 0 600 600" xml:space="preserve"><style>.st2{fill:#fff}</style><circle cx="300" cy="300.6" r="268" style="opacity:.4;fill:#3d88f3"/><path d="M461.3 138.4c-5.8-5.8-14.5-8.7-25.9-8.7-31.9 0-82.6 23.3-101.6 42.3L222.2 283.7l-85.8-1.9c-2.4 0-4.7.9-6.4 2.6l-20.4 20.3c-1.6 1.6-2.6 3.9-2.6 6.2 0 2.3.9 4.6 2.6 6.2l39.6 39.6-24.4 24.3c-1.6 1.6-2.6 3.9-2.6 6.2 0 2.3.9 4.6 2.6 6.2l81.5 81.4c3.4 3.4 9 3.4 12.4 0l24.3-24.3 39.6 39.6c1.7 1.7 4 2.6 6.2 2.6s4.5-.8 6.2-2.6l20.4-20.3c1.7-1.7 2.6-4 2.6-6.4l-1.9-85.8L427.7 266c12-12 25.9-36.8 34.4-61.8 7.6-22.1 13.6-51.4-.8-65.8zm-15.8 60c-7.5 21.9-20.3 45.1-30.2 55.1L301 367.7c-1.7 1.7-2.6 4-2.6 6.4l1.9 85.8-11.5 11.5-39.6-39.6c-1.7-1.7-4-2.6-6.2-2.6s-4.5.9-6.2 2.6l-24.3 24.3-69-69 24.3-24.3c1.6-1.6 2.6-3.9 2.6-6.2 0-2.3-.9-4.6-2.6-6.2l-39.6-39.5 11.5-11.5 85.8 1.9c2.4.2 4.7-.9 6.4-2.6l114.3-114.2c16.2-16.2 62.4-37.2 89.2-37.2 6.4 0 11.2 1.3 13.5 3.6 4.8 4.8 5.6 21.3-3.4 47.5z" style="fill:#3d88f3"/><path class="st2" d="m254 333.2-51.7 51.7c-3.4 3.4-3.4 9 0 12.4 3.4 3.4 9 3.4 12.4 0l51.7-51.7c3.4-3.4 3.4-9 0-12.4-3.4-3.4-9-3.4-12.4 0zM374.1 205.3c-5.6 5.6-5.6 14.7 0 20.4 5.6 5.6 14.7 5.6 20.4 0 5.6-5.6 5.6-14.7 0-20.4-5.7-5.6-14.8-5.6-20.4 0zM340 239.4c-5.6 5.6-5.6 14.7 0 20.3 5.6 5.6 14.8 5.6 20.4 0 5.6-5.6 5.6-14.7 0-20.3-5.6-5.7-14.8-5.7-20.4 0zM305.9 273.4c-5.6 5.6-5.6 14.7 0 20.3 5.6 5.6 14.7 5.6 20.4 0 5.6-5.6 5.6-14.7 0-20.4-5.7-5.5-14.8-5.5-20.4.1zM145.1 454.6c-3.4-3.4-9-3.4-12.4 0l-39.1 39.1c-3.4 3.4-3.4 9 0 12.4 3.4 3.4 9 3.4 12.4 0l39.1-39.1c3.4-3.5 3.4-9 0-12.4zM160.2 482 121 521.1c-3.4 3.4-3.4 9 0 12.4 3.4 3.4 9 3.4 12.4 0l39.1-39.1c3.4-3.4 3.4-9 0-12.4-3.4-3.4-8.9-3.4-12.3 0zM117.6 427.1c-3.4-3.4-9-3.4-12.4 0l-39.1 39.1c-3.4 3.4-3.4 9 0 12.4 3.4 3.4 9 3.4 12.4 0l39.1-39.1c3.5-3.4 3.5-9 0-12.4z"/></svg>